<?xml version="1.0" encoding="UTF-8"?>
<svg id="Layer_1" data-name="Layer 1" xmlns="http://www.w3.org/2000/svg" viewBox="0 0 782.92 270.41">
  <defs>
    <style>
      .cls-1 {
        fill: #2b2a29;
      }
    </style>
  </defs>
  <path class="cls-1" d="M177.23,88.72c-9.23-15.98-26.28-25.83-44.74-25.83h-5.93c-2.67,0-4.33,2.89-3,5.19l14.88,25.77c1.33,2.31-.33,5.19-3,5.19h-8.92c-15.11,0-29.07,8.06-36.62,21.15l-26.55,45.98c-1.33,2.31.33,5.19,3,5.19h33.76c1.24,0,2.38-.66,3-1.73l36.54-63.3c1.33-2.31,4.66-2.31,6,0l16.67,28.86h0s17.88,30.97,17.88,30.97c1.33,2.31-.33,5.19-3,5.19h-41.05c-13.78,0-26.5,7.35-33.39,19.28l-6.75,11.69c-1.33,2.31.33,5.19,3,5.19h48.82c11.14,0,21.43-5.94,26.99-15.58l6.74-11.68c3.18-5.5,9.05-8.89,15.4-8.89h21.99c2.67,0,4.33-2.88,3-5.19l-44.72-77.45Z"/>
  <path class="cls-1" d="M259.79,108.8l27.49.06c2.87,0,5.52-1.52,6.95-4.01l2.45-4.23c.41-.72-.11-1.61-.94-1.61l-25.78-.06c-3.92,0-7.56,2.09-9.52,5.49l-1.58,2.75c-.42.72.1,1.61.93,1.61Z"/>
  <path class="cls-1" d="M671.09,137.39c-7.29-5.72-19.06-6.67-28-2.28-3.15,1.54-5.67,3.61-7.46,6.1v-26.01h-3.31v56.06h3.31v-8.82c.82,1.16,1.8,2.23,2.93,3.2,4.19,3.64,10.28,5.69,16.55,5.69,1.27,0,2.54-.09,3.81-.27h.14c8.53-.69,15.64-6.07,18.13-13.73,2.34-7.21.09-14.64-6.1-19.94ZM674.04,156.32c-2.08,6.37-8.05,10.86-15.31,11.43l-.25.03c-6.61.91-13.4-.87-17.75-4.64-3.3-2.86-5.06-6.73-5.1-11.19v-.12c0-6.04,3.17-10.92,8.92-13.75,3.27-1.6,7.03-2.38,10.76-2.38,5.09,0,10.12,1.45,13.67,4.26,5.08,4.34,6.97,10.46,5.06,16.36Z"/>
  <path class="cls-1" d="M548.03,115.03h-22.43c-10.72,0-19.42,8.71-19.42,19.42h9.94c0-5.23,4.25-9.48,9.48-9.48h22.43c2.45,0,4.43,1.99,4.43,4.44,0,2.19-1.56,4.03-3.73,4.37l-31.44,5.02c-6.76.82-12.15,5.69-13.83,12.02v-13.04c0-12.55-10.21-22.75-22.75-22.75-7.2,0-13.61,3.35-17.78,8.58-4.16-5.23-10.59-8.58-17.78-8.58-4.74,0-9.16,1.45-12.81,3.95v-3.95h-9.94v46.45h-24.19c-3.45,0-6.25-2.81-6.25-6.27v-30.24h25.02v-9.94h-25.02v-16.08h-9.94v16.08h-54.16c-10.72,0-19.44,8.71-19.44,19.42h9.95c0-5.23,4.25-9.48,9.49-9.48h22.43c2.44,0,4.43,1.99,4.43,4.44,0,2.19-1.57,4.03-3.73,4.37l-31.44,5.02c-7.42.89-13.18,6.67-14.23,13.89v-23.28c0-7.93-6.45-14.38-14.37-14.38h-22.44c-10.71,0-19.43,8.71-19.43,19.42h9.94c0-5.23,4.26-9.48,9.49-9.48h22.44c2.44,0,4.43,1.99,4.43,4.44,0,2.19-1.57,4.03-3.73,4.37l-31.44,5.02c-8.22.99-14.4,7.96-14.4,16.25,0,9.02,7.35,16.37,16.37,16.37h43.14v-14.06c1.12,7.93,7.97,14.06,16.21,14.06h43.13v-42.01c0-1.55-.24-3.04-.7-4.44h18.06v30.24c0,8.94,7.25,16.21,16.19,16.21h34.13v-33.64c0-7.07,5.75-12.81,12.81-12.81s12.81,5.74,12.81,12.81v33.64h9.94v-33.64c0-7.07,5.75-12.81,12.81-12.81s12.81,5.74,12.81,12.81v33.64h9.94v-12.13c1.87,6.98,8.25,12.13,15.81,12.13h43.14v-42.01c0-7.93-6.46-14.38-14.38-14.38ZM295.38,161.48h-33.2c-3.54,0-6.42-2.89-6.42-6.43,0-3.27,2.45-6.02,5.69-6.4l31.76-5.05c.74-.12,1.47-.3,2.17-.52v18.4ZM354.72,161.48h-33.19c-3.55,0-6.43-2.89-6.43-6.43,0-3.27,2.45-6.02,5.7-6.4l31.76-5.05c.74-.12,1.46-.3,2.16-.52v18.4ZM552.46,161.48h-33.19c-3.55,0-6.43-2.89-6.43-6.43,0-3.27,2.45-6.02,5.7-6.4l31.76-5.05c.74-.12,1.47-.3,2.16-.52v18.4Z"/>
  <path class="cls-1" d="M614.11,132.45h-17.15c-7.02,0-12.72,5.7-12.72,12.7h3.32c0-5.18,4.22-9.39,9.4-9.39h17.15c3.05,0,5.54,2.47,5.54,5.53,0,2.73-1.97,5.03-4.67,5.46l-24.04,3.85c-5.25.59-9.19,5.02-9.19,10.3,0,5.72,4.65,10.37,10.37,10.37h30.84v-29.98c0-4.88-3.97-8.84-8.85-8.84ZM619.65,167.96h-27.53c-3.9,0-7.06-3.17-7.06-7.06,0-3.59,2.69-6.6,6.33-7.02l24.12-3.85c1.57-.25,2.97-.89,4.14-1.82v19.75Z"/>
  <path class="cls-1" d="M711.36,150.71l-19.87-3.3c-2.51-.42-4.32-2.57-4.32-5.11,0-1.38.53-2.68,1.51-3.66.98-.98,2.3-1.52,3.68-1.51l16.74.07c3.6,0,6.53,2.93,6.53,6.53h3.31c0-5.42-4.42-9.84-9.84-9.84l-16.72-.07c-2.29-.04-4.42.87-6.02,2.47-1.61,1.6-2.5,3.74-2.5,6.01,0,4.18,2.98,7.69,7.09,8.37l19.87,3.31c3.42.55,5.91,3.48,5.91,6.94,0,3.88-3.16,7.04-7.04,7.04h-14.29c-5.25,0-9.51-4.26-9.51-9.51h-3.31c0,7.07,5.75,12.82,12.82,12.82h14.29c5.71,0,10.35-4.64,10.35-10.35,0-5.09-3.66-9.39-8.68-10.21Z"/>
  <rect class="cls-1" x="572.05" y="115.2" width="3.31" height="56.06"/>
</svg>