<?xml version="1.0" encoding="UTF-8"?>
<svg id="Layer_1" data-name="Layer 1" xmlns="http://www.w3.org/2000/svg" viewBox="0 0 300 300">
  <defs>
    <style>
      .cls-1 {
        fill: #f4efe4;
      }
    </style>
  </defs>
  <path class="cls-1" d="M236.6,183.82c1.46,2.52-.36,5.67-3.27,5.67h-24.01c-6.94,0-13.35,3.7-16.82,9.71l-7.37,12.76c-6.08,10.53-17.32,17.02-29.48,17.02h-53.32c-2.91,0-4.73-3.15-3.27-5.67l7.37-12.76c7.52-13.03,21.43-21.05,36.47-21.05h44.83c2.91,0,4.73-3.15,3.27-5.67l-19.53-33.82h0s-18.2-31.53-18.2-31.53c-1.46-2.52-5.09-2.52-6.55,0l-39.91,69.13c-.68,1.17-1.92,1.89-3.27,1.89h-36.87c-2.91,0-4.73-3.15-3.27-5.67l28.99-50.22c8.25-14.29,23.5-23.09,40-23.09h9.74c2.91,0,4.73-3.15,3.27-5.67l-16.25-28.14c-1.46-2.52.36-5.67,3.27-5.67h6.48c20.16,0,38.78,10.75,48.86,28.21l48.84,84.59Z"/>
</svg>
